<?xml version="1.0" standalone="no"?>
<!DOCTYPE svg PUBLIC "-//W3C//DTD SVG 20010904//EN"
 "http://www.w3.org/TR/2001/REC-SVG-20010904/DTD/svg10.dtd">
<svg version="1.0" xmlns="http://www.w3.org/2000/svg"
 width="332.000000pt" height="308.000000pt" viewBox="0 0 332.000000 308.000000"
 preserveAspectRatio="xMidYMid meet">

<g transform="translate(0.000000,308.000000) scale(0.100000,-0.100000)"
fill="#000000" stroke="none">
<path d="M1054 2351 c-107 -66 -152 -267 -90 -406 15 -33 41 -81 57 -107 l30
-46 -25 -51 c-16 -30 -26 -67 -26 -91 0 -28 -11 -60 -32 -99 -20 -35 -29 -64
-25 -75 6 -15 15 -12 69 26 35 23 71 50 81 59 10 9 39 27 64 40 67 34 141 31
213 -9 l56 -31 58 20 c33 10 70 19 83 19 13 0 45 5 70 12 35 8 62 8 112 -1 72
-13 135 -29 166 -41 63 -26 148 -49 204 -55 l63 -6 44 46 c29 31 45 60 49 84
4 20 12 50 19 66 12 28 17 30 64 30 40 0 56 5 77 25 26 25 27 27 20 112 l-7
86 48 7 c27 4 73 14 102 22 92 28 150 121 110 176 -8 10 -42 23 -82 31 -46 10
-77 23 -95 40 -50 48 -124 59 -215 31 -82 -25 -111 -49 -147 -123 -48 -97 -95
-169 -122 -186 -28 -19 -151 -63 -227 -82 -99 -24 -341 -37 -494 -26 -132 10
-140 12 -168 39 -40 38 -93 136 -108 199 -13 59 -1 146 32 222 28 68 24 75
-28 43z"/>
<path d="M700 1754 c-57 -25 -96 -61 -120 -111 -52 -110 -15 -240 85 -298 34
-20 55 -25 113 -25 70 0 82 3 172 42 45 20 150 88 183 119 11 10 38 27 61 40
40 21 46 21 89 8 26 -7 60 -23 75 -35 26 -21 26 -23 14 -60 -7 -22 -17 -48
-21 -59 -5 -11 -21 -50 -36 -87 -15 -37 -44 -90 -66 -120 -36 -48 -66 -103
-98 -181 -15 -37 -14 -150 1 -165 16 -16 53 -15 66 1 7 8 6 19 -3 37 -18 32
-18 59 0 103 23 55 60 92 107 107 53 17 90 41 145 93 l41 39 13 -23 c7 -13 14
-58 17 -99 5 -80 24 -130 81 -207 27 -38 36 -43 69 -43 21 0 42 3 45 6 4 4 -9
25 -29 47 -20 21 -43 55 -51 74 -14 34 -13 39 27 139 23 57 47 104 54 104 6 0
43 -7 81 -16 39 -8 81 -18 95 -21 49 -9 70 -25 70 -52 0 -27 -21 -96 -33 -107
-4 -4 -7 -19 -7 -34 0 -14 -5 -31 -11 -37 -5 -5 -9 -32 -7 -59 l3 -49 43 -3
c47 -4 49 -1 25 38 -16 28 -16 31 7 77 37 73 98 161 124 178 25 17 49 15 186
-11 140 -28 190 -66 190 -144 0 -25 4 -31 18 -28 14 3 17 14 17 60 -1 71 -20
100 -99 146 -63 37 -79 63 -97 155 -17 92 25 137 130 137 48 0 51 2 69 37 l19
36 -36 49 c-20 26 -51 55 -68 63 -20 10 -33 23 -33 35 0 28 -15 32 -36 8 -11
-11 -50 -44 -89 -73 -38 -28 -76 -59 -84 -68 -10 -13 -30 -17 -87 -17 -41 0
-82 4 -92 9 -9 5 -35 14 -57 20 -22 7 -49 16 -60 21 -11 4 -40 13 -65 20 -25
7 -58 16 -74 21 -40 12 -126 11 -183 -2 -82 -19 -127 -31 -149 -39 -14 -6 -35
0 -71 20 -54 30 -68 33 -149 31 -33 -1 -57 -7 -70 -19 -41 -38 -174 -123 -258
-165 -84 -41 -198 -31 -234 21 -52 76 -52 138 0 198 41 46 77 64 133 64 100 0
154 -71 74 -99 -22 -7 -29 -16 -29 -35 0 -51 80 -43 119 12 35 50 25 103 -27
149 -48 43 -164 57 -232 27z"/>
<path d="M1206 1507 c-11 -7 -27 -17 -35 -24 -9 -6 -37 -28 -64 -47 -26 -20
-52 -36 -57 -36 -6 0 -10 -4 -10 -10 0 -5 -4 -10 -10 -10 -5 0 -32 -13 -60
-30 -28 -16 -57 -30 -64 -30 -11 0 -90 -101 -113 -146 -11 -20 -25 -151 -27
-249 l-1 -59 38 -8 c53 -11 102 3 102 28 0 10 -10 23 -22 29 -27 12 -29 39 -9
106 19 62 39 99 69 127 33 31 43 16 51 -78 10 -118 26 -170 53 -176 13 -4 34
-3 48 0 20 5 25 13 25 36 0 16 -4 32 -10 35 -18 11 -10 93 14 150 15 33 44 72
74 100 27 25 64 73 81 105 18 33 43 73 56 89 30 34 31 51 8 71 -45 38 -102 49
-137 27z"/>
<path d="M1836 1152 c-9 -16 10 -287 23 -310 21 -39 41 -27 41 25 0 42 25 135
52 189 17 36 6 67 -32 86 -38 19 -76 23 -84 10z"/>
<path d="M2027 948 c-23 -53 -13 -80 38 -95 69 -22 121 25 69 62 -16 11 -40
32 -53 48 -14 15 -28 27 -31 27 -3 0 -13 -19 -23 -42z"/>
</g>
</svg>
